<svg xmlns="http://www.w3.org/2000/svg" viewBox="0 0 600 600" fill="none">
  <defs>
    <linearGradient id="bg" x1="0" y1="0" x2="600" y2="600" gradientUnits="userSpaceOnUse">
      <stop offset="0%" stop-color="#23093A"></stop>
      <stop offset="100%" stop-color="#0F0420"></stop>
    </linearGradient>
    <radialGradient id="g1" cx="50%" cy="50%" r="50%">
      <stop offset="0%" stop-color="#ffffff" stop-opacity="0.18"></stop>
      <stop offset="100%" stop-color="#ffffff" stop-opacity="0"></stop>
    </radialGradient>
    <filter id="grain">
      <feTurbulence type="fractalNoise" baseFrequency="0.9" numOctaves="2" seed="3"></feTurbulence>
      <feColorMatrix values="0 0 0 0 1  0 0 0 0 1  0 0 0 0 1  0 0 0 0.08 0"></feColorMatrix>
      <feComposite in2="SourceGraphic" operator="in"></feComposite>
    </filter>
  </defs>
  <rect width="600" height="600" fill="url(#bg)"></rect>
  <g stroke="#C77BFF" stroke-width="1.4" opacity="0.55">
    <line x1="40" y1="60" x2="560" y2="52"></line><line x1="40" y1="78" x2="560" y2="78"></line><line x1="40" y1="96" x2="560" y2="104"></line><line x1="40" y1="114" x2="560" y2="106"></line><line x1="40" y1="132" x2="560" y2="132"></line><line x1="40" y1="150" x2="560" y2="158"></line><line x1="40" y1="168" x2="560" y2="160"></line><line x1="40" y1="186" x2="560" y2="186"></line><line x1="40" y1="204" x2="560" y2="212"></line><line x1="40" y1="222" x2="560" y2="214"></line><line x1="40" y1="240" x2="560" y2="240"></line><line x1="40" y1="258" x2="560" y2="266"></line><line x1="40" y1="276" x2="560" y2="268"></line><line x1="40" y1="294" x2="560" y2="294"></line><line x1="40" y1="312" x2="560" y2="320"></line><line x1="40" y1="330" x2="560" y2="322"></line><line x1="40" y1="348" x2="560" y2="348"></line><line x1="40" y1="366" x2="560" y2="374"></line><line x1="40" y1="384" x2="560" y2="376"></line><line x1="40" y1="402" x2="560" y2="402"></line><line x1="40" y1="420" x2="560" y2="428"></line><line x1="40" y1="438" x2="560" y2="430"></line><line x1="40" y1="456" x2="560" y2="456"></line><line x1="40" y1="474" x2="560" y2="482"></line><line x1="40" y1="492" x2="560" y2="484"></line><line x1="40" y1="510" x2="560" y2="510"></line><line x1="40" y1="528" x2="560" y2="536"></line><line x1="40" y1="546" x2="560" y2="538"></line>
  </g>
  <circle cx="430" cy="430" r="80" fill="#C77BFF" opacity="0.85"></circle>
  <rect width="600" height="600" fill="url(#g1)"></rect>
</svg>